<svg width="56" height="16" viewBox="0 0 56 16" fill="none" xmlns="http://www.w3.org/2000/svg">
<path fill-rule="evenodd" clip-rule="evenodd" d="M55.3899 3.91236V2.58008H54.8984V3.91236H55.3899ZM21.3904 14.1567V10.9877H21.4163C21.6405 11.3153 21.9272 11.5633 22.2765 11.7314C22.6257 11.8996 23.0073 11.9836 23.4212 11.9836C23.9127 11.9836 24.3417 11.8888 24.7082 11.6991C25.0747 11.5094 25.3808 11.255 25.6266 10.9359C25.8723 10.6169 26.0556 10.2504 26.1763 9.83647C26.297 9.42255 26.3574 8.9914 26.3574 8.54299C26.3574 8.06872 26.297 7.61385 26.1763 7.17838C26.0556 6.74291 25.8702 6.36133 25.6201 6.03365C25.37 5.70597 25.0553 5.44297 24.6759 5.24463C24.2964 5.0463 23.8437 4.94713 23.3177 4.94713C22.9038 4.94713 22.5244 5.02905 22.1795 5.19289C21.8345 5.35673 21.55 5.61974 21.3258 5.98191H21.2999V5.12822H19.5537V14.1567H21.3904ZM22.9297 10.6125C22.6365 10.6125 22.3864 10.5522 22.1795 10.4315C21.9725 10.3107 21.8065 10.1534 21.6815 9.95935C21.5564 9.76532 21.4659 9.53897 21.4098 9.28027C21.3538 9.02158 21.3258 8.75857 21.3258 8.49125C21.3258 8.21531 21.3516 7.94799 21.4034 7.6893C21.4551 7.4306 21.5435 7.20209 21.6685 7.00376C21.7936 6.80543 21.9574 6.64374 22.1601 6.51871C22.3627 6.39367 22.6149 6.33115 22.9167 6.33115C23.2099 6.33115 23.4578 6.39367 23.6605 6.51871C23.8631 6.64374 24.0291 6.80758 24.1585 7.01023C24.2878 7.21287 24.3805 7.44354 24.4366 7.70223C24.4926 7.96093 24.5206 8.22393 24.5206 8.49125C24.5206 8.75857 24.4948 9.02158 24.443 9.28027C24.3913 9.53897 24.3029 9.76532 24.1779 9.95935C24.0528 10.1534 23.889 10.3107 23.6864 10.4315C23.4837 10.5522 23.2315 10.6125 22.9297 10.6125ZM30.5652 11.8025C30.1685 11.9233 29.7632 11.9836 29.3493 11.9836C29.0302 11.9836 28.7327 11.9448 28.4568 11.8672C28.1808 11.7896 27.9394 11.6689 27.7324 11.505C27.5255 11.3412 27.3638 11.1343 27.2474 10.8842C27.131 10.6341 27.0728 10.3366 27.0728 9.99168C27.0728 9.61226 27.1396 9.29967 27.2733 9.05391C27.4069 8.80815 27.5794 8.61198 27.7907 8.46538C28.0019 8.31879 28.2434 8.20884 28.515 8.13555C28.7866 8.06225 29.0604 8.00404 29.3364 7.96093C29.6123 7.91781 29.8839 7.88332 30.1512 7.85745C30.4186 7.83158 30.6557 7.79278 30.8627 7.74104C31.0696 7.6893 31.2334 7.61385 31.3542 7.51468C31.4749 7.41551 31.5309 7.27108 31.5223 7.08137C31.5223 6.88303 31.49 6.72566 31.4253 6.60925C31.3606 6.49284 31.2744 6.40229 31.1666 6.33762C31.0588 6.27295 30.9338 6.22983 30.7915 6.20827C30.6492 6.18671 30.4962 6.17594 30.3323 6.17594C29.9702 6.17594 29.6856 6.25354 29.4786 6.40876C29.2717 6.56398 29.151 6.82267 29.1165 7.18484H27.2797C27.3056 6.75369 27.4134 6.39583 27.6031 6.11126C27.7928 5.8267 28.0343 5.59818 28.3274 5.42572C28.6206 5.25326 28.9505 5.13038 29.3169 5.05708C29.6834 4.98378 30.0521 4.94713 30.4229 4.94713C30.7592 4.94713 31.0998 4.97085 31.4447 5.01828C31.7896 5.0657 32.1044 5.1584 32.389 5.29637C32.6735 5.43434 32.9063 5.62621 33.0874 5.87197C33.2685 6.11773 33.3591 6.44325 33.3591 6.84854V10.328C33.3591 10.6298 33.3763 10.9187 33.4108 11.1946C33.4453 11.4706 33.5056 11.6775 33.5919 11.8155H31.7293C31.6948 11.712 31.6668 11.6064 31.6452 11.4986C31.6236 11.3908 31.6086 11.2808 31.5999 11.1687C31.3067 11.4706 30.9618 11.6818 30.5652 11.8025ZM30.0348 10.7678C29.8882 10.7678 29.746 10.7548 29.608 10.729C29.47 10.7031 29.3493 10.6578 29.2458 10.5931C29.1423 10.5285 29.0604 10.4401 29 10.328C28.9397 10.2159 28.9095 10.0779 28.9095 9.91407C28.9095 9.74161 28.9397 9.59933 29 9.48723C29.0604 9.37513 29.1402 9.28243 29.2393 9.20913C29.3385 9.13583 29.4549 9.07763 29.5886 9.03451C29.7222 8.9914 29.8581 8.9569 29.996 8.93103C30.1426 8.90516 30.2892 8.88361 30.4358 8.86636C30.5824 8.84911 30.7225 8.82756 30.8562 8.80169C30.9898 8.77582 31.1149 8.74348 31.2313 8.70468C31.3477 8.66587 31.4447 8.61198 31.5223 8.54299V9.22853C31.5223 9.33201 31.5115 9.46998 31.49 9.64244C31.4684 9.81491 31.4102 9.98521 31.3154 10.1534C31.2205 10.3215 31.0739 10.466 30.8756 10.5867C30.6773 10.7074 30.397 10.7678 30.0348 10.7678ZM37.1529 13.8074C36.7994 14.0403 36.3078 14.1567 35.6784 14.1567C35.4886 14.1567 35.3011 14.1502 35.1157 14.1373C34.9303 14.1243 34.7427 14.1092 34.553 14.092V12.5786C34.7255 12.5959 34.9023 12.6131 35.0834 12.6304C35.2644 12.6476 35.4455 12.6519 35.6266 12.6433C35.8681 12.6174 36.047 12.5226 36.1634 12.3587C36.2798 12.1949 36.338 12.0138 36.338 11.8155C36.338 11.6689 36.3122 11.5309 36.2604 11.4016L33.9192 5.12822H35.8724L37.3857 9.70712H37.4116L38.8732 5.12822H40.7746L37.9807 12.6433C37.7824 13.1866 37.5065 13.5746 37.1529 13.8074ZM43.2362 11.9707C43.5553 11.9707 43.8485 11.9319 44.1158 11.8543C44.3831 11.7767 44.6224 11.6689 44.8337 11.5309C45.0449 11.3929 45.2239 11.2356 45.3705 11.0588C45.517 10.882 45.6291 10.6945 45.7068 10.4961H45.7326V10.8454C45.7326 10.9833 45.7434 11.1105 45.765 11.2269C45.7865 11.3434 45.8275 11.4447 45.8878 11.5309C45.9482 11.6171 46.0366 11.6861 46.153 11.7379C46.2694 11.7896 46.4268 11.8155 46.6251 11.8155C46.7631 11.8155 46.8967 11.7982 47.0261 11.7637V11.3498C46.8709 11.3757 46.7502 11.3886 46.6639 11.3886C46.5518 11.3886 46.4656 11.3649 46.4052 11.3175C46.3449 11.2701 46.3018 11.2075 46.2759 11.1299C46.25 11.0523 46.2349 10.9661 46.2306 10.8712C46.2263 10.7764 46.2241 10.6815 46.2241 10.5867V6.71919C46.2241 6.21043 46.0409 5.79867 45.6744 5.48393C45.3079 5.16918 44.7237 5.01181 43.9218 5.01181C43.1198 5.01181 42.5011 5.19505 42.0656 5.56153C41.6302 5.92802 41.3952 6.47775 41.3607 7.21071H41.8522C41.8867 6.61572 42.0872 6.17162 42.4537 5.87844C42.8202 5.58525 43.3009 5.43865 43.8959 5.43865C44.2322 5.43865 44.5168 5.47315 44.7496 5.54213C44.9824 5.61112 45.1721 5.70597 45.3187 5.8267C45.4653 5.94742 45.5731 6.08539 45.6421 6.24061C45.7111 6.39583 45.7456 6.56398 45.7456 6.74506C45.7456 6.97789 45.7326 7.17191 45.7068 7.32713C45.6809 7.48234 45.6162 7.60954 45.5127 7.7087C45.4093 7.80787 45.2562 7.88548 45.0535 7.94153C44.8509 7.99758 44.5728 8.03854 44.2193 8.06441L43.4561 8.12908C43.1888 8.15495 42.9107 8.19807 42.6218 8.25843C42.3329 8.31879 42.0699 8.42011 41.8328 8.56239C41.5957 8.70468 41.3995 8.8987 41.2443 9.14446C41.0891 9.39022 41.0114 9.70712 41.0114 10.0952C41.0114 10.7333 41.2055 11.2054 41.5935 11.5115C41.9816 11.8176 42.5291 11.9707 43.2362 11.9707ZM41.9686 11.1881C42.279 11.4253 42.7059 11.5439 43.2492 11.5439C43.8097 11.5439 44.2538 11.4425 44.5814 11.2399C44.9091 11.0372 45.1592 10.8044 45.3316 10.5414C45.5041 10.2784 45.6141 10.024 45.6615 9.77826C45.7089 9.5325 45.7326 9.3665 45.7326 9.28027V8.03854C45.6119 8.18513 45.4287 8.2843 45.1829 8.33604C44.9371 8.38777 44.6634 8.42658 44.3615 8.45245L43.5337 8.53006C43.2923 8.55593 43.0508 8.59258 42.8094 8.64C42.5679 8.68743 42.3502 8.76719 42.1562 8.87929C41.9621 8.9914 41.8048 9.14446 41.684 9.33848C41.5633 9.5325 41.503 9.78473 41.503 10.0952C41.503 10.5867 41.6582 10.951 41.9686 11.1881ZM48.2977 14.1955V10.4315H48.3236C48.5219 10.9747 48.8366 11.3671 49.2678 11.6085C49.6989 11.85 50.1905 11.9707 50.7423 11.9707C51.2511 11.9707 51.6931 11.8845 52.0682 11.712C52.4433 11.5395 52.7537 11.3002 52.9995 10.9941C53.2452 10.688 53.4285 10.3237 53.5492 9.90114C53.6699 9.4786 53.7303 9.01295 53.7303 8.50419C53.7303 8.03854 53.6699 7.59444 53.5492 7.17191C53.4285 6.74937 53.2452 6.37858 52.9995 6.05952C52.7537 5.74047 52.4433 5.48608 52.0682 5.29637C51.6931 5.10666 51.2511 5.01181 50.7423 5.01181C50.3802 5.01181 50.059 5.06786 49.7787 5.17996C49.4985 5.29206 49.2592 5.43219 49.0608 5.60034C48.8625 5.76849 48.703 5.95173 48.5822 6.15007C48.4615 6.3484 48.3753 6.52948 48.3236 6.69332H48.2977V5.16703H47.8062V14.1955H48.2977ZM49.5718 11.2916C49.8865 11.4598 50.2767 11.5439 50.7423 11.5439C51.1735 11.5439 51.5465 11.4619 51.8612 11.2981C52.1759 11.1343 52.4346 10.9144 52.6373 10.6384C52.8399 10.3625 52.9908 10.0413 53.09 9.67478C53.1892 9.3083 53.2388 8.9181 53.2388 8.50419C53.2388 8.12477 53.1913 7.75182 53.0965 7.38533C53.0016 7.01885 52.855 6.69117 52.6567 6.40229C52.4584 6.11342 52.2018 5.88059 51.8871 5.70382C51.5723 5.52704 51.1908 5.43865 50.7423 5.43865C50.3026 5.43865 49.9275 5.52489 49.617 5.69735C49.3066 5.86981 49.0544 6.09833 48.8603 6.38289C48.6663 6.66745 48.5262 6.99298 48.44 7.35946C48.3537 7.72595 48.3106 8.10752 48.3106 8.50419C48.3106 8.90085 48.3494 9.28243 48.427 9.64891C48.5046 10.0154 48.6361 10.3388 48.8215 10.619C49.0069 10.8993 49.257 11.1235 49.5718 11.2916ZM54.8984 5.16703H55.3899V11.8155H54.8984V5.16703Z" fill="white"/>
<circle cx="8.69751" cy="2.46101" r="1.21263" transform="rotate(45 8.69751 2.46101)" fill="white"/>
<circle cx="11.5558" cy="5.31941" r="1.21263" transform="rotate(45 11.5558 5.31941)" fill="white"/>
<circle cx="14.4139" cy="8.17732" r="1.21263" transform="rotate(45 14.4139 8.17732)" fill="white"/>
<circle cx="5.83936" cy="5.31941" r="1.21263" transform="rotate(45 5.83936 5.31941)" fill="white"/>
<circle opacity="0.5" cx="8.69751" cy="8.17732" r="1.21263" transform="rotate(45 8.69751 8.17732)" fill="white"/>
<circle opacity="0.5" cx="11.5558" cy="11.0357" r="1.21263" transform="rotate(45 11.5558 11.0357)" fill="white"/>
<circle cx="2.98108" cy="8.17732" r="1.21263" transform="rotate(45 2.98108 8.17732)" fill="white"/>
<circle opacity="0.5" cx="5.83936" cy="11.0357" r="1.21263" transform="rotate(45 5.83936 11.0357)" fill="white"/>
<circle opacity="0.25" cx="8.69751" cy="13.8936" r="1.21263" transform="rotate(45 8.69751 13.8936)" fill="white"/>
</svg>
