<svg width="51" height="15" viewBox="0 0 51 15" fill="none" xmlns="http://www.w3.org/2000/svg">
<path fill-rule="evenodd" clip-rule="evenodd" d="M49.5897 3.82652V2.61914H49.1459V3.82652H49.5897ZM18.8868 13.1104V10.2385H18.9102C19.1126 10.5355 19.3715 10.7601 19.6869 10.9125C20.0023 11.0649 20.3469 11.1411 20.7207 11.1411C21.1645 11.1411 21.5519 11.0551 21.8829 10.8832C22.2138 10.7113 22.4903 10.4808 22.7122 10.1916C22.9341 9.90248 23.0996 9.57035 23.2086 9.19524C23.3176 8.82013 23.3721 8.4294 23.3721 8.02303C23.3721 7.59322 23.3176 7.18099 23.2086 6.78635C23.0996 6.3917 22.9322 6.0459 22.7064 5.74894C22.4805 5.45198 22.1963 5.21363 21.8537 5.03389C21.511 4.85416 21.1022 4.76429 20.6272 4.76429C20.2534 4.76429 19.9108 4.83853 19.5993 4.98701C19.2878 5.13549 19.0309 5.37384 18.8284 5.70205H18.805V4.9284H17.2281V13.1104H18.8868ZM20.2768 9.89857C20.012 9.89857 19.7862 9.84386 19.5993 9.73446C19.4124 9.62505 19.2625 9.48243 19.1496 9.3066C19.0367 9.13077 18.9549 8.92563 18.9043 8.69119C18.8537 8.45675 18.8284 8.2184 18.8284 7.97614C18.8284 7.72607 18.8518 7.48381 18.8985 7.24937C18.9452 7.01493 19.025 6.80784 19.1379 6.6281C19.2508 6.44836 19.3988 6.30184 19.5818 6.18852C19.7648 6.07521 19.9926 6.01855 20.2651 6.01855C20.5299 6.01855 20.7537 6.07521 20.9367 6.18852C21.1197 6.30184 21.2696 6.45032 21.3864 6.63396C21.5033 6.81761 21.587 7.02665 21.6376 7.26109C21.6882 7.49554 21.7135 7.73389 21.7135 7.97614C21.7135 8.2184 21.6901 8.45675 21.6434 8.69119C21.5967 8.92563 21.5169 9.13077 21.404 9.3066C21.2911 9.48243 21.1431 9.62505 20.9601 9.73446C20.7771 9.84386 20.5493 9.89857 20.2768 9.89857ZM27.1719 10.977C26.8137 11.0864 26.4477 11.1411 26.074 11.1411C25.7858 11.1411 25.5172 11.1059 25.268 11.0356C25.0188 10.9653 24.8008 10.8559 24.6139 10.7074C24.427 10.5589 24.281 10.3714 24.1759 10.1447C24.0707 9.9181 24.0182 9.6485 24.0182 9.33591C24.0182 8.99206 24.0785 8.70877 24.1992 8.48605C24.3199 8.26333 24.4757 8.08555 24.6665 7.9527C24.8572 7.81985 25.0753 7.72021 25.3206 7.65378C25.5659 7.58736 25.8131 7.53461 26.0623 7.49554C26.3115 7.45646 26.5568 7.4252 26.7982 7.40176C27.0396 7.37831 27.2537 7.34315 27.4406 7.29626C27.6275 7.24937 27.7754 7.18099 27.8845 7.09112C27.9935 7.00125 28.0441 6.87036 28.0363 6.69843C28.0363 6.51869 28.0071 6.37608 27.9487 6.27058C27.8903 6.16508 27.8124 6.08302 27.7151 6.02441C27.6178 5.9658 27.5048 5.92673 27.3764 5.90719C27.2479 5.88765 27.1096 5.87789 26.9617 5.87789C26.6346 5.87789 26.3777 5.94822 26.1908 6.08888C26.0039 6.22955 25.8949 6.46399 25.8637 6.79221H24.2051C24.2284 6.40147 24.3258 6.07716 24.4971 5.81928C24.6684 5.56139 24.8864 5.3543 25.1512 5.198C25.416 5.04171 25.7138 4.93035 26.0448 4.86392C26.3757 4.7975 26.7086 4.76429 27.0435 4.76429C27.3472 4.76429 27.6547 4.78578 27.9662 4.82876C28.2777 4.87174 28.5619 4.95575 28.8189 5.08078C29.0759 5.20582 29.2861 5.3797 29.4497 5.60242C29.6132 5.82514 29.695 6.12014 29.695 6.48744V9.64068C29.695 9.9142 29.7105 10.176 29.7417 10.4261C29.7728 10.6761 29.8273 10.8637 29.9052 10.9887H28.2232C28.192 10.8949 28.1667 10.7992 28.1473 10.7015C28.1278 10.6038 28.1142 10.5042 28.1064 10.4026C27.8416 10.6761 27.5301 10.8676 27.1719 10.977ZM26.693 10.0392C26.5607 10.0392 26.4322 10.0275 26.3076 10.0041C26.183 9.98062 26.074 9.9396 25.9805 9.88098C25.8871 9.82237 25.8131 9.74227 25.7586 9.64068C25.7041 9.53909 25.6768 9.41405 25.6768 9.26557C25.6768 9.10928 25.7041 8.98034 25.7586 8.87875C25.8131 8.77715 25.8851 8.69314 25.9747 8.62672C26.0642 8.56029 26.1694 8.50754 26.2901 8.46847C26.4108 8.4294 26.5334 8.39814 26.658 8.37469C26.7904 8.35125 26.9228 8.33171 27.0551 8.31608C27.1875 8.30045 27.3141 8.28092 27.4348 8.25747C27.5555 8.23403 27.6684 8.20472 27.7735 8.16956C27.8786 8.13439 27.9662 8.08555 28.0363 8.02303V8.6443C28.0363 8.73808 28.0266 8.86312 28.0071 9.01941C27.9876 9.1757 27.9351 9.33005 27.8494 9.48243C27.7638 9.63482 27.6314 9.76572 27.4523 9.87512C27.2732 9.98453 27.0201 10.0392 26.693 10.0392ZM33.121 12.7939C32.8017 13.0049 32.3578 13.1104 31.7894 13.1104C31.6181 13.1104 31.4487 13.1046 31.2813 13.0928C31.1138 13.0811 30.9445 13.0674 30.7732 13.0518V11.6803C30.9289 11.696 31.0885 11.7116 31.2521 11.7272C31.4156 11.7428 31.5791 11.7468 31.7427 11.7389C31.9607 11.7155 32.1223 11.6295 32.2274 11.4811C32.3325 11.3326 32.3851 11.1685 32.3851 10.9887C32.3851 10.8559 32.3617 10.7308 32.315 10.6136L30.2008 4.9284H31.9646L33.3312 9.07802H33.3546L34.6745 4.9284H36.3915L33.8685 11.7389C33.6894 12.2313 33.4402 12.5829 33.121 12.7939ZM38.6144 11.1294C38.9026 11.1294 39.1673 11.0942 39.4087 11.0239C39.6501 10.9536 39.8662 10.8559 40.057 10.7308C40.2478 10.6058 40.4094 10.4632 40.5417 10.303C40.6741 10.1428 40.7754 9.97281 40.8454 9.79307H40.8688V10.1096C40.8688 10.2346 40.8785 10.3499 40.898 10.4554C40.9175 10.5609 40.9545 10.6527 41.009 10.7308C41.0635 10.809 41.1433 10.8715 41.2484 10.9184C41.3535 10.9653 41.4957 10.9887 41.6748 10.9887C41.7994 10.9887 41.9201 10.9731 42.0369 10.9418V10.5667C41.8967 10.5902 41.7877 10.6019 41.7098 10.6019C41.6086 10.6019 41.5307 10.5804 41.4762 10.5374C41.4217 10.4944 41.3827 10.4378 41.3594 10.3675C41.336 10.2971 41.3224 10.219 41.3185 10.133C41.3146 10.047 41.3127 9.96109 41.3127 9.87512V6.37021C41.3127 5.90914 41.1472 5.53599 40.8162 5.25075C40.4853 4.96552 39.9577 4.8229 39.2335 4.8229C38.5093 4.8229 37.9506 4.98896 37.5574 5.32109C37.1641 5.65321 36.9519 6.1514 36.9208 6.81565H37.3646C37.3958 6.27644 37.5768 5.87398 37.9078 5.60828C38.2387 5.34258 38.6728 5.20973 39.2102 5.20973C39.5139 5.20973 39.7708 5.24098 39.9811 5.3035C40.1913 5.36602 40.3626 5.45198 40.495 5.56139C40.6274 5.6708 40.7247 5.79583 40.787 5.9365C40.8493 6.07716 40.8805 6.22955 40.8805 6.39366C40.8805 6.60466 40.8688 6.78049 40.8454 6.92115C40.8221 7.06182 40.7637 7.17709 40.6702 7.26696C40.5768 7.35682 40.4386 7.42716 40.2556 7.47795C40.0726 7.52875 39.8214 7.56587 39.5022 7.58931L38.813 7.64792C38.5716 7.67137 38.3205 7.71044 38.0596 7.76514C37.7987 7.81985 37.5612 7.91167 37.3471 8.04061C37.133 8.16956 36.9558 8.34539 36.8156 8.56811C36.6755 8.79083 36.6054 9.07802 36.6054 9.42968C36.6054 10.008 36.7806 10.4358 37.131 10.7133C37.4814 10.9907 37.9759 11.1294 38.6144 11.1294ZM37.4697 10.4202C37.7501 10.6351 38.1355 10.7426 38.6261 10.7426C39.1323 10.7426 39.5333 10.6507 39.8292 10.4671C40.1251 10.2834 40.351 10.0724 40.5067 9.8341C40.6624 9.59575 40.7617 9.36521 40.8046 9.14249C40.8474 8.91977 40.8688 8.76934 40.8688 8.69119V7.56587C40.7598 7.69872 40.5943 7.78859 40.3724 7.83548C40.1504 7.88237 39.9032 7.91753 39.6307 7.94098L38.8831 8.01131C38.6651 8.03475 38.447 8.06797 38.229 8.11095C38.0109 8.15393 37.8143 8.22621 37.6391 8.32781C37.4639 8.4294 37.3218 8.56811 37.2128 8.74394C37.1038 8.91977 37.0492 9.14835 37.0492 9.42968C37.0492 9.87512 37.1894 10.2053 37.4697 10.4202ZM43.1852 13.1456V9.73446H43.2085C43.3876 10.2268 43.6718 10.5824 44.0612 10.8012C44.4506 11.02 44.8944 11.1294 45.3928 11.1294C45.8522 11.1294 46.2513 11.0512 46.5901 10.8949C46.9288 10.7387 47.2091 10.5218 47.4311 10.2444C47.653 9.96695 47.8185 9.63677 47.9275 9.25385C48.0365 8.87093 48.091 8.44893 48.091 7.98786C48.091 7.56587 48.0365 7.16341 47.9275 6.78049C47.8185 6.39757 47.653 6.06153 47.4311 5.77239C47.2091 5.48324 46.9288 5.25271 46.5901 5.08078C46.2513 4.90886 45.8522 4.8229 45.3928 4.8229C45.0657 4.8229 44.7757 4.87369 44.5226 4.97528C44.2695 5.07688 44.0534 5.20386 43.8743 5.35625C43.6952 5.50864 43.5511 5.6747 43.4421 5.85444C43.3331 6.03418 43.2552 6.19829 43.2085 6.34677H43.1852V4.96356H42.7413V13.1456H43.1852ZM44.3357 10.514C44.6199 10.6664 44.9723 10.7426 45.3928 10.7426C45.7821 10.7426 46.1189 10.6683 46.4032 10.5198C46.6874 10.3714 46.921 10.1721 47.104 9.92201C47.287 9.67194 47.4233 9.38084 47.5128 9.04872C47.6024 8.71659 47.6471 8.36297 47.6471 7.98786C47.6471 7.64402 47.6043 7.30603 47.5187 6.9739C47.433 6.64178 47.3006 6.34482 47.1215 6.08302C46.9424 5.82123 46.7108 5.61023 46.4265 5.45003C46.1423 5.28983 45.7977 5.20973 45.3928 5.20973C44.9956 5.20973 44.6569 5.28787 44.3766 5.44417C44.0962 5.60046 43.8685 5.80755 43.6933 6.06544C43.5181 6.32333 43.3915 6.61833 43.3136 6.95046C43.2358 7.28258 43.1968 7.62839 43.1968 7.98786C43.1968 8.34734 43.2319 8.69314 43.302 9.02527C43.372 9.3574 43.4908 9.65045 43.6582 9.90443C43.8256 10.1584 44.0515 10.3616 44.3357 10.514ZM49.1459 4.96356H49.5897V10.9887H49.1459V4.96356Z" fill="white"/>
<circle cx="7.42456" cy="2.51136" r="1.097" transform="rotate(45 7.42456 2.51136)" fill="white"/>
<circle cx="10.0056" cy="5.1012" r="1.097" transform="rotate(45 10.0056 5.1012)" fill="white"/>
<circle cx="12.5867" cy="7.69202" r="1.097" transform="rotate(45 12.5867 7.69202)" fill="white"/>
<circle cx="4.84338" cy="5.1012" r="1.097" transform="rotate(45 4.84338 5.1012)" fill="white"/>
<circle opacity="0.5" cx="7.42456" cy="7.69202" r="1.097" transform="rotate(45 7.42456 7.69202)" fill="white"/>
<circle opacity="0.5" cx="10.0056" cy="10.2819" r="1.097" transform="rotate(45 10.0056 10.2819)" fill="white"/>
<circle cx="2.26233" cy="7.69202" r="1.097" transform="rotate(45 2.26233 7.69202)" fill="white"/>
<circle opacity="0.5" cx="4.84338" cy="10.2819" r="1.097" transform="rotate(45 4.84338 10.2819)" fill="white"/>
<circle opacity="0.25" cx="7.42456" cy="12.8727" r="1.097" transform="rotate(45 7.42456 12.8727)" fill="white"/>
</svg>
