<svg width="86" height="24" viewBox="0 0 86 24" fill="none" xmlns="http://www.w3.org/2000/svg">
<path fill-rule="evenodd" clip-rule="evenodd" d="M85.0467 5.42534V3.34366H84.2787V5.42534H85.0467ZM31.9225 21.4321V16.4805H31.9629C32.3132 16.9925 32.7612 17.3799 33.3069 17.6426C33.8526 17.9053 34.4488 18.0367 35.0956 18.0367C35.8636 18.0367 36.5339 17.8885 37.1065 17.5921C37.6791 17.2957 38.1575 16.8982 38.5415 16.3997C38.9255 15.9011 39.2118 15.3285 39.4004 14.6818C39.589 14.035 39.6833 13.3613 39.6833 12.6607C39.6833 11.9197 39.589 11.2089 39.4004 10.5285C39.2118 9.84808 38.9221 9.25187 38.5313 8.73987C38.1406 8.22787 37.6488 7.81692 37.056 7.50703C36.4631 7.19713 35.7558 7.04218 34.9339 7.04218C34.2871 7.04218 33.6943 7.17018 33.1553 7.42618C32.6164 7.68218 32.1718 8.09313 31.8215 8.65903H31.781V7.32513H29.0526V21.4321H31.9225ZM34.3276 15.8944C33.8695 15.8944 33.4787 15.8001 33.1553 15.6114C32.832 15.4228 32.5726 15.1769 32.3772 14.8738C32.1819 14.5706 32.0404 14.2169 31.9528 13.8127C31.8652 13.4085 31.8215 12.9976 31.8215 12.5799C31.8215 12.1487 31.8619 11.731 31.9427 11.3268C32.0236 10.9226 32.1617 10.5656 32.357 10.2557C32.5524 9.94576 32.8084 9.69313 33.125 9.49776C33.4417 9.3024 33.8358 9.20471 34.3073 9.20471C34.7655 9.20471 35.1528 9.3024 35.4695 9.49776C35.7861 9.69313 36.0455 9.94913 36.2476 10.2658C36.4497 10.5824 36.5945 10.9428 36.6821 11.347C36.7697 11.7512 36.8135 12.1622 36.8135 12.5799C36.8135 12.9976 36.773 13.4085 36.6922 13.8127C36.6113 14.2169 36.4732 14.5706 36.2779 14.8738C36.0825 15.1769 35.8265 15.4228 35.5099 15.6114C35.1932 15.8001 34.7991 15.8944 34.3276 15.8944ZM46.258 17.7538C45.6382 17.9424 45.0049 18.0367 44.3582 18.0367C43.8597 18.0367 43.3948 17.9761 42.9637 17.8548C42.5325 17.7336 42.1553 17.5449 41.8319 17.2889C41.5085 17.0329 41.2559 16.7096 41.074 16.3188C40.8921 15.9281 40.8011 15.4632 40.8011 14.9243C40.8011 14.3314 40.9056 13.843 41.1144 13.459C41.3233 13.075 41.5927 12.7685 41.9228 12.5394C42.2529 12.3104 42.6302 12.1386 43.0546 12.0241C43.479 11.9096 43.9068 11.8186 44.338 11.7512C44.7691 11.6839 45.1936 11.63 45.6113 11.5896C46.0289 11.5491 46.3995 11.4885 46.7228 11.4077C47.0462 11.3268 47.3022 11.2089 47.4908 11.054C47.6795 10.899 47.767 10.6733 47.7536 10.3769C47.7536 10.067 47.703 9.82113 47.602 9.63924C47.5009 9.45734 47.3662 9.31587 47.1978 9.21482C47.0294 9.11376 46.834 9.0464 46.6117 9.01271C46.3894 8.97903 46.1502 8.96218 45.8942 8.96218C45.3283 8.96218 44.8837 9.08345 44.5603 9.32597C44.2369 9.5685 44.0483 9.97271 43.9944 10.5386H41.1245C41.1649 9.86492 41.3334 9.30576 41.6298 8.86113C41.9262 8.4165 42.3035 8.05945 42.7616 7.78997C43.2197 7.5205 43.735 7.3285 44.3077 7.21397C44.8803 7.09945 45.4563 7.04218 46.0357 7.04218C46.5611 7.04218 47.0934 7.07924 47.6323 7.15334C48.1713 7.22745 48.663 7.37229 49.1077 7.58787C49.5523 7.80345 49.9161 8.10324 50.199 8.48724C50.482 8.87124 50.6235 9.37987 50.6235 10.0131V15.4498C50.6235 15.9213 50.6504 16.3727 50.7043 16.8039C50.7582 17.235 50.8525 17.5584 50.9873 17.774H48.0769C48.023 17.6123 47.9793 17.4472 47.9456 17.2788C47.9119 17.1104 47.8883 16.9386 47.8748 16.7634C47.4167 17.235 46.8778 17.5651 46.258 17.7538ZM45.4294 16.1369C45.2003 16.1369 44.978 16.1167 44.7624 16.0763C44.5468 16.0359 44.3582 15.9651 44.1965 15.8641C44.0348 15.763 43.9068 15.6249 43.8125 15.4498C43.7182 15.2746 43.671 15.059 43.671 14.803C43.671 14.5336 43.7182 14.3112 43.8125 14.1361C43.9068 13.9609 44.0315 13.8161 44.1864 13.7016C44.3414 13.587 44.5233 13.4961 44.7321 13.4287C44.9409 13.3613 45.1531 13.3074 45.3687 13.267C45.5978 13.2266 45.8268 13.1929 46.0559 13.166C46.2849 13.139 46.5039 13.1053 46.7127 13.0649C46.9216 13.0245 47.1169 12.974 47.2988 12.9133C47.4807 12.8527 47.6323 12.7685 47.7536 12.6607V13.7319C47.7536 13.8936 47.7367 14.1091 47.703 14.3786C47.6694 14.6481 47.5784 14.9142 47.4302 15.1769C47.282 15.4397 47.0529 15.6653 46.743 15.854C46.4331 16.0426 45.9953 16.1369 45.4294 16.1369ZM56.5514 20.8864C55.9989 21.2502 55.2309 21.4321 54.2474 21.4321C53.9509 21.4321 53.6579 21.422 53.3682 21.4018C53.0785 21.3816 52.7855 21.358 52.489 21.331V18.9664C52.7585 18.9933 53.0347 19.0203 53.3177 19.0472C53.6006 19.0742 53.8836 19.0809 54.1665 19.0674C54.5438 19.027 54.8234 18.8788 55.0053 18.6228C55.1872 18.3668 55.2781 18.0839 55.2781 17.774C55.2781 17.5449 55.2377 17.3293 55.1568 17.1272L51.4987 7.32513H54.5505L56.9152 14.4797H56.9556L59.2394 7.32513H62.2103L57.8448 19.0674C57.5349 19.9163 57.1038 20.5226 56.5514 20.8864ZM66.0565 18.0165C66.5551 18.0165 67.0132 17.9559 67.4308 17.8346C67.8485 17.7133 68.2224 17.5449 68.5525 17.3293C68.8826 17.1138 69.1622 16.8679 69.3913 16.5917C69.6203 16.3154 69.7955 16.0224 69.9167 15.7125H69.9572V16.2582C69.9572 16.4738 69.974 16.6725 70.0077 16.8544C70.0414 17.0363 70.1054 17.1946 70.1997 17.3293C70.294 17.4641 70.4321 17.5719 70.614 17.6527C70.7959 17.7336 71.0418 17.774 71.3517 17.774C71.5673 17.774 71.7761 17.747 71.9782 17.6931V17.0464C71.7357 17.0868 71.5471 17.107 71.4123 17.107C71.2372 17.107 71.1024 17.07 71.0081 16.9959C70.9138 16.9218 70.8464 16.8241 70.806 16.7028C70.7656 16.5816 70.742 16.4468 70.7353 16.2986C70.7285 16.1504 70.7252 16.0022 70.7252 15.854V9.81103C70.7252 9.01608 70.4389 8.37271 69.8662 7.88092C69.2936 7.38913 68.3807 7.14324 67.1277 7.14324C65.8746 7.14324 64.9079 7.42955 64.2275 8.00218C63.5471 8.57482 63.1799 9.43376 63.126 10.579H63.894C63.9479 9.64934 64.2612 8.95545 64.8338 8.49734C65.4064 8.03924 66.1576 7.81018 67.0873 7.81018C67.6127 7.81018 68.0574 7.86408 68.4212 7.97187C68.785 8.07966 69.0814 8.22787 69.3104 8.4165C69.5395 8.60513 69.7079 8.82071 69.8157 9.06324C69.9235 9.30576 69.9774 9.5685 69.9774 9.85145C69.9774 10.2152 69.9572 10.5184 69.9167 10.7609C69.8763 11.0034 69.7753 11.2022 69.6136 11.3571C69.4519 11.5121 69.2127 11.6333 68.8961 11.7209C68.5795 11.8085 68.145 11.8725 67.5925 11.9129L66.4001 12.014C65.9824 12.0544 65.5479 12.1218 65.0965 12.2161C64.6452 12.3104 64.2342 12.4687 63.8637 12.691C63.4932 12.9133 63.1866 13.2165 62.9441 13.6005C62.7016 13.9845 62.5803 14.4797 62.5803 15.086C62.5803 16.083 62.8835 16.8207 63.4898 17.299C64.0961 17.7773 64.9517 18.0165 66.0565 18.0165ZM64.0759 16.7938C64.561 17.1643 65.2279 17.3496 66.0767 17.3496C66.9525 17.3496 67.6464 17.1912 68.1584 16.8746C68.6704 16.558 69.0612 16.1942 69.3306 15.7832C69.6001 15.3723 69.7719 14.9748 69.846 14.5908C69.9201 14.2068 69.9572 13.9474 69.9572 13.8127V11.8725C69.7685 12.1016 69.4822 12.2565 69.0982 12.3373C68.7142 12.4182 68.2864 12.4788 67.8148 12.5192L66.5214 12.6405C66.1441 12.6809 65.7668 12.7382 65.3896 12.8123C65.0123 12.8864 64.6721 13.011 64.3689 13.1862C64.0658 13.3613 63.8199 13.6005 63.6313 13.9037C63.4426 14.2068 63.3483 14.6009 63.3483 15.086C63.3483 15.854 63.5908 16.4232 64.0759 16.7938ZM73.9651 21.4927V15.6114H74.0055C74.3154 16.4603 74.8072 17.0733 75.4809 17.4506C76.1545 17.8279 76.9225 18.0165 77.7849 18.0165C78.5798 18.0165 79.2703 17.8818 79.8564 17.6123C80.4425 17.3428 80.9276 16.9689 81.3116 16.4906C81.6956 16.0123 81.9819 15.443 82.1705 14.7828C82.3592 14.1226 82.4535 13.395 82.4535 12.6001C82.4535 11.8725 82.3592 11.1786 82.1705 10.5184C81.9819 9.85818 81.6956 9.27882 81.3116 8.78029C80.9276 8.28176 80.4425 7.88429 79.8564 7.58787C79.2703 7.29145 78.5798 7.14324 77.7849 7.14324C77.219 7.14324 76.7171 7.23082 76.2792 7.40597C75.8413 7.58113 75.4674 7.80008 75.1575 8.06282C74.8476 8.32555 74.5983 8.61187 74.4097 8.92176C74.2211 9.23166 74.0863 9.51461 74.0055 9.77061H73.9651V7.38576H73.1971V21.4927H73.9651ZM75.9558 16.9554C76.4476 17.2182 77.0573 17.3496 77.7849 17.3496C78.4585 17.3496 79.0413 17.2216 79.5331 16.9656C80.0249 16.7096 80.4291 16.366 80.7457 15.9348C81.0623 15.5037 81.2981 15.0018 81.4531 14.4291C81.608 13.8565 81.6855 13.2468 81.6855 12.6001C81.6855 12.0072 81.6114 11.4245 81.4632 10.8519C81.315 10.2792 81.0859 9.76724 80.776 9.31587C80.4661 8.8645 80.0653 8.50071 79.5735 8.2245C79.0817 7.94829 78.4855 7.81018 77.7849 7.81018C77.0977 7.81018 76.5116 7.94492 76.0265 8.2144C75.5415 8.48387 75.1474 8.84092 74.8442 9.28555C74.5411 9.73019 74.3221 10.2388 74.1874 10.8114C74.0526 11.3841 73.9853 11.9803 73.9853 12.6001C73.9853 13.2199 74.0459 13.8161 74.1672 14.3887C74.2884 14.9613 74.4939 15.4666 74.7836 15.9045C75.0733 16.3424 75.464 16.6927 75.9558 16.9554ZM84.2787 7.38576H85.0467V17.774H84.2787V7.38576Z" fill="white"/>
<circle cx="12.0897" cy="3.1579" r="1.89474" transform="rotate(45 12.0897 3.1579)" fill="white"/>
<circle cx="16.5557" cy="7.62384" r="1.89474" transform="rotate(45 16.5557 7.62384)" fill="white"/>
<circle cx="21.0216" cy="12.0898" r="1.89474" transform="rotate(45 21.0216 12.0898)" fill="white"/>
<circle cx="7.62378" cy="7.62384" r="1.89474" transform="rotate(45 7.62378 7.62384)" fill="white"/>
<circle opacity="0.5" cx="12.0897" cy="12.0898" r="1.89474" transform="rotate(45 12.0897 12.0898)" fill="white"/>
<circle opacity="0.5" cx="16.5557" cy="16.5557" r="1.89474" transform="rotate(45 16.5557 16.5557)" fill="white"/>
<circle cx="3.15784" cy="12.0898" r="1.89474" transform="rotate(45 3.15784 12.0898)" fill="white"/>
<circle opacity="0.5" cx="7.62378" cy="16.5557" r="1.89474" transform="rotate(45 7.62378 16.5557)" fill="white"/>
<circle opacity="0.25" cx="12.0897" cy="21.0216" r="1.89474" transform="rotate(45 12.0897 21.0216)" fill="white"/>
</svg>
